<svg xmlns="http://www.w3.org/2000/svg" width="256" height="256" viewBox="0 0 256 256" version="1.1">
	<path d="M 175.618 34.054 C 164.492 36.832, 153.112 46.259, 148.180 56.782 C 145.807 61.846, 145.500 63.701, 145.500 73 C 145.500 84.993, 147.037 90.275, 152.675 97.662 C 154.579 100.156, 155.994 102.265, 155.818 102.348 C 149.702 105.263, 146.444 107.520, 141.599 112.196 L 135.698 117.892 138.683 121.291 C 155.796 140.782, 167.192 190.198, 159.561 211.826 L 158.113 215.931 161.807 216.715 C 169.425 218.334, 201.824 217.382, 214 215.183 C 227.659 212.715, 237.957 209.665, 241.028 207.178 C 244.279 204.546, 242.927 201.358, 237.923 199.859 L 233.966 198.673 237.331 195.587 C 242.067 191.242, 243.876 187.195, 244.598 179.327 C 245.908 165.051, 241.671 144.037, 234.552 129.500 C 229.274 118.725, 224.966 113.478, 217.057 108.197 L 211.147 104.250 214.632 100.875 C 219.192 96.459, 223.781 87.005, 224.998 79.521 C 228.732 56.547, 210.400 34.235, 187.077 33.367 C 182.909 33.212, 177.753 33.521, 175.618 34.054 M 134.648 60.379 C 134.263 63.634, 133.070 67.497, 131.976 69.034 C 130.889 70.560, 129.994 72.189, 129.987 72.654 C 129.965 74.164, 121.884 89.393, 119.088 93.195 C 114.992 98.764, 102.614 109.480, 97.247 112.102 C 94.636 113.378, 88.900 115.147, 84.500 116.035 L 76.500 117.648 82.385 118.456 C 100.783 120.982, 118.200 112.935, 128.850 96.987 C 134.707 88.216, 137.349 79.379, 137.217 69.006 C 137.157 64.328, 136.711 59.150, 136.226 57.500 C 135.411 54.726, 135.292 54.942, 134.648 60.379 M 123.587 215.290 L 124.127 225.079 120.907 228.087 C 116.738 231.982, 103.528 238.319, 94 240.997 C 89.875 242.156, 82.225 243.399, 77 243.760 L 67.500 244.416 75 245.645 C 85.600 247.383, 91.366 247.275, 109.528 244.998 C 134.548 241.861, 148.711 238.892, 158.290 234.777 C 166.670 231.177, 166.725 226.588, 158.428 223.419 C 154.105 221.768, 153.558 221.764, 149.167 223.337 C 143.015 225.542, 139.542 225.441, 134.302 222.904 C 129.773 220.712, 125.521 214.903, 123.881 208.668 C 123.365 206.709, 123.253 209.236, 123.587 215.290" stroke="none" fill="black" fill-rule="evenodd"/>
</svg>